# xmcd
#
# Track frame offsets: 
#        150
#        11216
#        23189
#        32924
#        44729
#        56935
#        75033
#        90954
#        101897
#        121523
#
# Disc length: 1792 seconds
#
# Revision: 0
# Processed by: cddbd v1.5.2PL0 Copyright (c) Steve Scherf et al.
# Submitted via: ExactAudioCopy v1.0b4
#
DISCID=7506fe0a
DTITLE=Memphis Slim, Philippe Lejeune - Dialog In Boogie (LP)
DYEAR=1980
DGENRE=Blues
TTITLE0=Rockin`
TTITLE1=E. E. C. Boogie
TTITLE2=C`Est Normal C`Est Normand
TTITLE3=Jefferson County
TTITLE4=Fourth And Beale
TTITLE5=This Is The Way I Feel
TTITLE6=Three, Two, One Boogie
TTITLE7=Mid Nite Tempo
TTITLE8=Cooky Boogie
TTITLE9=C And L Boogie
EXTD=
EXTT0=
EXTT1=
EXTT2=
EXTT3=
EXTT4=
EXTT5=
EXTT6=
EXTT7=
EXTT8=
EXTT9=
PLAYORDER=
